<svg width="22" height="22" viewBox="0 0 22 22" fill="none" xmlns="http://www.w3.org/2000/svg">
<path d="M7.08816 14.2228H7.08917C7.09001 14.2228 7.09085 14.2227 7.09169 14.2227H18.7773C19.065 14.2227 19.318 14.0318 19.397 13.7552L21.9752 4.73177C22.0307 4.53723 21.9918 4.32809 21.8701 4.16663C21.7482 4.00516 21.5577 3.91016 21.3555 3.91016H5.60171L5.14098 1.83675C5.07535 1.54184 4.81384 1.33203 4.51172 1.33203H0.644531C0.288528 1.33203 0 1.62056 0 1.97656C0 2.33257 0.288528 2.62109 0.644531 2.62109H3.99475C4.07632 2.98851 6.19958 12.5433 6.32178 13.093C5.63679 13.3908 5.15625 14.0738 5.15625 14.8672C5.15625 15.9333 6.02368 16.8008 7.08984 16.8008H18.7773C19.1333 16.8008 19.4219 16.5123 19.4219 16.1562C19.4219 15.8002 19.1333 15.5117 18.7773 15.5117H7.08984C6.73451 15.5117 6.44531 15.2225 6.44531 14.8672C6.44531 14.5124 6.7335 14.2237 7.08816 14.2228ZM20.501 5.19922L18.2911 12.9336H7.60681L5.88806 5.19922H20.501Z" fill="white"/>
<path d="M6.44531 18.7344C6.44531 19.8005 7.31274 20.668 8.37891 20.668C9.44507 20.668 10.3125 19.8005 10.3125 18.7344C10.3125 17.6682 9.44507 16.8008 8.37891 16.8008C7.31274 16.8008 6.44531 17.6682 6.44531 18.7344ZM8.37891 18.0898C8.73424 18.0898 9.02344 18.379 9.02344 18.7344C9.02344 19.0897 8.73424 19.3789 8.37891 19.3789C8.02357 19.3789 7.73438 19.0897 7.73438 18.7344C7.73438 18.379 8.02357 18.0898 8.37891 18.0898Z" fill="white"/>
<path d="M15.5547 18.7344C15.5547 19.8005 16.4221 20.668 17.4883 20.668C18.5544 20.668 19.4219 19.8005 19.4219 18.7344C19.4219 17.6682 18.5544 16.8008 17.4883 16.8008C16.4221 16.8008 15.5547 17.6682 15.5547 18.7344ZM17.4883 18.0898C17.8436 18.0898 18.1328 18.379 18.1328 18.7344C18.1328 19.0897 17.8436 19.3789 17.4883 19.3789C17.1329 19.3789 16.8438 19.0897 16.8438 18.7344C16.8438 18.379 17.1329 18.0898 17.4883 18.0898Z" fill="white"/>
</svg>
