<svg width="151" height="38" viewBox="0 0 151 38" fill="none" xmlns="http://www.w3.org/2000/svg">
<rect x="80" width="71" height="38" fill="#E05D5D"/>
<path d="M133.707 19.7071C134.098 19.3166 134.098 18.6834 133.707 18.2929L127.343 11.9289C126.953 11.5384 126.319 11.5384 125.929 11.9289C125.538 12.3195 125.538 12.9526 125.929 13.3431L131.586 19L125.929 24.6569C125.538 25.0474 125.538 25.6805 125.929 26.0711C126.319 26.4616 126.953 26.4616 127.343 26.0711L133.707 19.7071ZM98 20H133V18H98V20Z" fill="white"/>
<rect width="71" height="38" fill="#E05D5D"/>
<path d="M17.2929 19.7071C16.9024 19.3166 16.9024 18.6834 17.2929 18.2929L23.6569 11.9289C24.0474 11.5384 24.6805 11.5384 25.0711 11.9289C25.4616 12.3195 25.4616 12.9526 25.0711 13.3431L19.4142 19L25.0711 24.6569C25.4616 25.0474 25.4616 25.6805 25.0711 26.0711C24.6805 26.4616 24.0474 26.4616 23.6569 26.0711L17.2929 19.7071ZM53 20H18V18H53V20Z" fill="white"/>
</svg>
