<svg width="23" height="17" viewBox="0 0 23 17" fill="none" xmlns="http://www.w3.org/2000/svg">
<path d="M20.3566 0H1.96156C0.881306 0 0 0.880347 0 1.96156V15.0386C0 16.1162 0.877383 17.0002 1.96156 17.0002H20.3566C21.4342 17.0002 22.3182 16.1228 22.3182 15.0386V1.96156C22.3182 0.884009 21.4408 0 20.3566 0ZM20.0857 1.30771L11.2007 10.1928L2.23875 1.30771H20.0857ZM1.30771 14.7678V2.22611L7.60557 8.46996L1.30771 14.7678ZM2.23238 15.6925L8.53422 9.39063L10.7424 11.5798C10.998 11.8333 11.4105 11.8324 11.665 11.5778L13.8181 9.42476L20.0858 15.6925H2.23238ZM21.0105 14.7678L14.7428 8.50008L21.0105 2.23234V14.7678Z" fill="#B1B1B1"/>
</svg>
