<svg width="19" height="19" viewBox="0 0 19 19" fill="none" xmlns="http://www.w3.org/2000/svg">
<path d="M7.37594 5.05246L7.37592 5.05246C7.56414 5.65197 7.40977 6.29319 6.97458 6.7354L5.5618 8.6134C6.75815 10.8283 8.15436 12.2242 10.3867 13.4369L12.3173 11.9796C12.7142 11.5849 13.3781 11.4397 13.9568 11.6366C14.972 11.972 16.0438 12.1428 17.1361 12.1428C18.0526 12.1428 18.798 12.8881 18.798 13.8046V17.1361C18.798 18.0526 18.0527 18.798 17.1361 18.798C7.7984 18.798 0.202031 11.2017 0.202031 1.86385C0.202031 0.947381 0.947381 0.202031 1.86385 0.202031H5.20473C6.12124 0.202031 6.8666 0.947379 6.86655 1.86395L7.37594 5.05246ZM7.37594 5.05246L7.37501 5.04964M7.37594 5.05246L7.37501 5.04964M7.37501 5.04964C7.03792 4.02862 6.86655 2.95697 6.86655 1.86396L7.37501 5.04964ZM5.91567 5.80056L5.90736 5.80922L5.90013 5.81879L4.16306 8.11933L4.16298 8.11944C4.00011 8.33545 3.97444 8.62493 4.09674 8.866L4.09684 8.86622C5.53397 11.6909 7.28751 13.4444 10.131 14.9015C10.3722 15.0273 10.6648 14.9999 10.8806 14.837L10.8809 14.8367L13.2343 13.0538L13.2454 13.0454L13.2552 13.0356C13.32 12.9708 13.4176 12.9477 13.5051 12.9775L13.5068 12.978C14.672 13.3629 15.8931 13.5577 17.1361 13.5577C17.2722 13.5577 17.3831 13.6686 17.3831 13.8047V17.1361C17.3831 17.2722 17.2722 17.3831 17.1361 17.3831C8.57878 17.3831 1.61697 10.4212 1.61697 1.8639C1.61697 1.72781 1.72781 1.61697 1.8639 1.61697H5.20477C5.34086 1.61697 5.4517 1.72781 5.4517 1.8639C5.4517 3.10678 5.64679 4.32722 6.02879 5.48397C6.05393 5.56605 6.04562 5.66529 5.91567 5.80056Z" fill="#B1B1B1" stroke="#B1B1B1" stroke-width="0.4"/>
</svg>
