<svg width="23" height="23" viewBox="0 0 23 23" fill="none" xmlns="http://www.w3.org/2000/svg">
<path d="M11.5002 0.152459H11.5C5.23299 0.152459 0.152459 5.23299 0.152459 11.5C0.152459 17.767 5.23299 22.8475 11.5 22.8475C17.767 22.8475 22.8475 17.767 22.8475 11.5V11.4998C22.8405 5.23587 17.7641 0.159477 11.5002 0.152459ZM16.0269 5.77604L16.0264 5.77595C14.7043 5.55003 13.3668 5.42422 12.0258 5.4V1.24423C13.9494 1.51665 15.6569 3.27614 16.6857 5.89083L16.0269 5.77604ZM6.97361 5.776L6.31416 5.8901C7.34299 3.27441 9.05057 1.51417 10.9742 1.24252V5.4C9.6332 5.42422 8.29606 5.55003 6.97392 5.77595L6.97361 5.776ZM6.97335 17.224L6.97352 17.224C8.29569 17.4503 9.63302 17.5767 10.9742 17.6019V21.7578C9.05048 21.4852 7.3429 19.7254 6.3141 17.1104L6.97335 17.224ZM16.0264 17.224L16.6858 17.1099C15.657 19.7256 13.9494 21.4858 12.0258 21.7575V17.6019C13.3668 17.5767 14.704 17.4503 16.0261 17.224L16.0264 17.224ZM21.78 12.0258C21.7241 13.1438 21.4849 14.2452 21.0721 15.2859L18.2068 15.7803C18.5229 14.5527 18.6996 13.2932 18.7334 12.0258H21.78ZM1.21998 12.0258H4.26662C4.30041 13.2932 4.47708 14.5527 4.7932 15.7803L1.92791 15.2859C1.51505 14.2452 1.27592 13.1438 1.21998 12.0258ZM1.92791 7.71409L4.7932 7.21968C4.47708 8.44735 4.30041 9.70681 4.26662 10.9742H1.21998C1.27592 9.85618 1.51505 8.75477 1.92791 7.71409ZM17.0708 7.02343C17.4403 8.30936 17.6457 9.63677 17.682 10.9742H12.0258V6.45176C13.3069 6.47588 14.5845 6.59639 15.8477 6.81246C15.8478 6.81247 15.8478 6.81247 15.8478 6.81247L17.0708 7.02343ZM7.15256 6.81247C7.15261 6.81247 7.15265 6.81246 7.1527 6.81245C8.41572 6.59638 9.69314 6.47588 10.9742 6.45176V10.9742H5.31798C5.35434 9.63677 5.5597 8.30937 5.92923 7.02344L7.15256 6.81247ZM5.31798 12.0258H10.9742V16.5482C9.69308 16.5241 8.41543 16.4036 7.15219 16.1875L5.92923 15.9766C5.5597 14.6906 5.35434 13.3632 5.31798 12.0258ZM15.8474 16.1875C14.5844 16.4036 13.3069 16.5241 12.0258 16.5482V12.0258H17.682C17.6457 13.3632 17.4403 14.6906 17.0708 15.9766L15.8474 16.1875ZM21.78 10.9742H18.7334C18.6996 9.70681 18.5229 8.44735 18.2068 7.21968L21.0721 7.71409C21.4849 8.75477 21.7241 9.85618 21.78 10.9742ZM17.8706 6.09452C17.382 4.55011 16.5418 3.14335 15.4194 1.98333C17.5863 2.88074 19.3886 4.49034 20.5236 6.55228L17.8706 6.09452ZM5.12936 6.09452L2.47639 6.55228C3.61139 4.49034 5.41372 2.88074 7.58058 1.98333C6.45824 3.14335 5.61801 4.55011 5.12936 6.09452ZM5.12936 16.9055C5.61801 18.4499 6.45824 19.8566 7.58057 21.0167C5.41372 20.1193 3.61139 18.5097 2.47639 16.4477L5.12936 16.9055ZM17.8706 16.9055L20.5236 16.4477C19.3886 18.5097 17.5863 20.1193 15.4194 21.0167C16.5418 19.8566 17.382 18.4499 17.8706 16.9055Z" fill="#B1B1B1" stroke="#B1B1B1" stroke-width="0.3"/>
</svg>
