<svg width="16" height="23" viewBox="0 0 16 23" fill="none" xmlns="http://www.w3.org/2000/svg">
<path d="M7.83689 0C7.38908 0 6.93986 0.0380781 6.50188 0.113357C6.31868 0.144767 6.19567 0.318838 6.22708 0.502034C6.25849 0.685406 6.43274 0.808414 6.61576 0.777004C7.01619 0.708217 7.42716 0.673298 7.83689 0.673298C11.787 0.673298 15.0007 3.88695 15.0007 7.83707C15.0007 9.4932 14.3909 11.1283 13.2836 12.4408C12.9437 12.8437 12.5361 13.1919 12.1418 13.5284C11.306 14.2424 10.4436 14.9787 10.1867 16.2558H10.106C10.1174 16.1337 10.1389 15.973 10.179 15.7703C10.2765 15.2748 10.5069 14.4225 11.0493 13.1754C11.2762 12.6537 11.0748 12.0469 10.5806 11.7635C10.2942 11.5994 9.95189 11.5703 9.64183 11.6838C9.33211 11.7972 9.08996 12.0399 8.97748 12.3498L8.95168 12.4212C8.94186 12.448 8.93203 12.4752 8.9222 12.5022C8.0529 12.2604 7.18869 12.3761 6.74017 12.47C6.73421 12.4536 6.72824 12.4373 6.72245 12.4212L6.69648 12.3498C6.584 12.04 6.34184 11.7972 6.03213 11.6838C5.72207 11.5703 5.37989 11.5994 5.09334 11.7635C4.5992 12.0469 4.39776 12.6537 4.62464 13.1754C4.64781 13.2287 4.67044 13.2814 4.69255 13.3333C4.76538 13.5044 4.96296 13.5842 5.13405 13.5114C5.30514 13.4388 5.38498 13.241 5.31216 13.0699C5.28934 13.0162 5.26601 12.9618 5.24197 12.9067C5.1523 12.7004 5.23231 12.46 5.42814 12.3477C5.54185 12.2826 5.6775 12.271 5.80068 12.3161C5.92316 12.361 6.01897 12.457 6.06354 12.5795L6.08951 12.651C6.12847 12.7581 6.16847 12.8683 6.20883 12.9811L6.61471 14.2184C6.78597 14.8122 6.94039 15.4832 7.04216 16.2558H6.2441C6.21848 15.9258 6.1311 15.3714 5.86736 14.5464C5.81086 14.3693 5.62134 14.2716 5.44429 14.3282C5.26706 14.3849 5.16949 14.5743 5.226 14.7515C5.46026 15.4841 5.54098 15.9738 5.56765 16.2558H5.4857C5.22565 15.0154 4.32283 14.2045 3.44773 13.4188C3.03098 13.0446 2.63757 12.6912 2.31381 12.2966C1.24061 10.9881 0.673298 9.446 0.673298 7.83707C0.673298 6.37659 1.10988 4.97191 1.93584 3.77464C2.74285 2.60458 3.86431 1.70825 5.17879 1.1827C5.35146 1.11374 5.43534 0.917735 5.36638 0.745067C5.29724 0.5724 5.10141 0.488347 4.92874 0.557484C3.49073 1.13252 2.26415 2.11272 1.38152 3.39228C0.477819 4.70256 0 6.23954 0 7.83707C0 9.60357 0.620129 11.2932 1.79335 12.7235C2.14957 13.158 2.58089 13.5453 2.99782 13.9197C3.82658 14.6639 4.61219 15.3699 4.82767 16.4006C4.56709 16.5657 4.39319 16.856 4.39319 17.1867V17.8772C4.39319 18.096 4.46952 18.297 4.59639 18.4561C4.46952 18.6153 4.39319 18.8162 4.39319 19.035V19.7255C4.39319 20.147 4.67501 20.5036 5.05982 20.6178V20.8015C5.05982 22.0139 6.04617 23 7.25835 23H8.41578C9.62796 23 10.6143 22.0139 10.6143 20.8015V20.6178C10.9991 20.5036 11.2809 20.147 11.2809 19.7255V19.035C11.2809 18.8162 11.2046 18.6153 11.0777 18.4561C11.2046 18.297 11.2809 18.096 11.2809 17.8772V17.1867C11.2809 16.8554 11.1065 16.5647 10.8449 16.3997C11.0528 15.3446 11.764 14.7367 12.5793 14.0405C12.9941 13.6864 13.423 13.32 13.7985 12.875C15.008 11.4411 15.6741 9.65183 15.6741 7.83707C15.674 3.51564 12.1583 0 7.83689 0V0ZM9.0589 14.2193L9.44916 13.0301C9.45126 13.0236 9.45284 13.0169 9.4546 13.0102C9.49864 12.8871 9.54216 12.7674 9.58445 12.651L9.61042 12.5795C9.65481 12.457 9.75062 12.361 9.87328 12.3161C9.99629 12.271 10.1321 12.2826 10.2458 12.3477C10.4416 12.46 10.5217 12.7004 10.4318 12.9067C9.9626 13.9859 9.6506 14.9289 9.50496 15.7098C9.46302 15.9342 9.44108 16.1153 9.4302 16.2558H8.63179C8.73339 15.4836 8.88781 14.8131 9.0589 14.2193ZM6.96864 13.1111C7.3596 13.0378 8.03132 12.9644 8.69602 13.1382C8.6246 13.3456 8.55283 13.5633 8.48299 13.7925H7.19097C7.11797 13.5533 7.04304 13.3268 6.96864 13.1111ZM8.2933 14.4658C8.15643 14.9989 8.03641 15.5908 7.95306 16.2557H7.72073C7.63755 15.5908 7.51753 14.9989 7.38048 14.4658H8.2933ZM9.94084 20.8015C9.94084 21.6424 9.25666 22.3266 8.41578 22.3266H7.25817C6.4173 22.3266 5.73312 21.6424 5.73312 20.8015V20.6564H9.94084V20.8015ZM10.6075 19.7253C10.6075 19.8675 10.492 19.9831 10.3499 19.9831H5.32391C5.18195 19.9831 5.06632 19.8675 5.06632 19.7253V19.035C5.06632 18.9315 5.12773 18.8423 5.216 18.8013C5.25144 18.8055 5.28741 18.8081 5.32391 18.8081H10.3499C10.3864 18.8081 10.4223 18.8055 10.4578 18.8013C10.5461 18.8422 10.6075 18.9315 10.6075 19.035V19.7253ZM10.6075 17.8772C10.6075 17.9808 10.5461 18.0699 10.4578 18.1108C10.4223 18.1067 10.3865 18.1041 10.3499 18.1041H5.32391C5.28741 18.1041 5.25144 18.1067 5.216 18.1108C5.12791 18.0699 5.06632 17.9808 5.06632 17.8772V17.1867C5.06632 17.0446 5.18195 16.9291 5.32409 16.9291H10.3499C10.492 16.9291 10.6076 17.0446 10.6076 17.1867V17.8772H10.6075Z" fill="white"/>
</svg>
