<svg width="38" height="38" viewBox="0 0 38 38" fill="none" xmlns="http://www.w3.org/2000/svg">
<path d="M21.1111 21.1111V38H33.7778C34.9389 38 35.9332 37.5869 36.7608 36.7608C37.5869 35.9332 38 34.9389 38 33.7778V21.1111H21.1111ZM21.1111 16.8889H38V4.22222C38 3.06111 37.5869 2.06678 36.7608 1.23922C35.9332 0.413074 34.9389 0 33.7778 0H21.1111V16.8889ZM16.8889 16.8889V0H4.22222C3.06111 0 2.06678 0.413074 1.23922 1.23922C0.413074 2.06678 0 3.06111 0 4.22222V16.8889H16.8889ZM16.8889 21.1111H0V33.7778C0 34.9389 0.413074 35.9332 1.23922 36.7608C2.06678 37.5869 3.06111 38 4.22222 38H16.8889V21.1111Z" fill="#E05D5D"/>
</svg>
